<svg width="27" height="27" viewBox="0 0 27 27" fill="none" xmlns="http://www.w3.org/2000/svg">
<g filter="url(#filter0_d_16_306)">
<path d="M13.1359 0C10.6566 0 10.3449 0.0114198 9.37074 0.0548151C8.39663 0.100494 7.73314 0.25352 7.15187 0.479632C6.54216 0.708964 5.98989 1.0687 5.53368 1.53368C5.06898 1.99013 4.70929 2.54233 4.47963 3.15187C4.25352 3.732 4.09935 4.39663 4.05482 5.36732C4.01142 6.34371 4 6.65433 4 9.137C4 11.6174 4.01142 11.928 4.05482 12.9021C4.10049 13.8751 4.25352 14.5386 4.47963 15.1198C4.71374 15.7205 5.0255 16.2298 5.53368 16.738C6.04072 17.2462 6.55005 17.5591 7.15073 17.7921C7.73314 18.0182 8.39549 18.1724 9.36846 18.2169C10.3437 18.2603 10.6543 18.2717 13.1359 18.2717C15.6174 18.2717 15.9269 18.2603 16.9021 18.2169C17.8739 18.1712 18.5397 18.0182 19.121 17.7921C19.7303 17.5626 20.2822 17.2029 20.738 16.738C21.2462 16.2298 21.558 15.7205 21.7921 15.1198C22.0171 14.5386 22.1712 13.8751 22.2169 12.9021C22.2603 11.928 22.2717 11.6174 22.2717 9.13586C22.2717 6.65433 22.2603 6.34371 22.2169 5.36846C22.1712 4.39663 22.0171 3.732 21.7921 3.15187C21.5625 2.54231 21.2028 1.9901 20.738 1.53368C20.282 1.06852 19.7297 0.708766 19.1198 0.479632C18.5374 0.25352 17.8728 0.0993524 16.901 0.0548151C15.9257 0.0114198 15.6162 0 13.1336 0H13.137H13.1359ZM12.3171 1.64674H13.137C15.5763 1.64674 15.8652 1.65473 16.8279 1.69927C17.7186 1.73924 18.2028 1.88884 18.5249 2.01331C18.9508 2.1789 19.2557 2.37761 19.5755 2.69736C19.8952 3.01712 20.0928 3.32088 20.2584 3.74799C20.384 4.06888 20.5325 4.55308 20.5724 5.44383C20.617 6.40652 20.6261 6.69544 20.6261 9.13357C20.6261 11.5717 20.617 11.8618 20.5724 12.8245C20.5325 13.7152 20.3829 14.1983 20.2584 14.5203C20.1119 14.917 19.8781 15.2757 19.5744 15.5698C19.2546 15.8895 18.9508 16.0871 18.5237 16.2527C18.204 16.3783 17.7198 16.5268 16.8279 16.5679C15.8652 16.6113 15.5763 16.6215 13.137 16.6215C10.6977 16.6215 10.4077 16.6113 9.44497 16.5679C8.55422 16.5268 8.07117 16.3783 7.74913 16.2527C7.35229 16.1064 6.99328 15.8731 6.6985 15.5698C6.39445 15.2752 6.16031 14.9162 6.01331 14.5192C5.88884 14.1983 5.73924 13.7141 5.69927 12.8233C5.65587 11.8606 5.64674 11.5717 5.64674 9.13129C5.64674 6.69201 5.65587 6.40424 5.69927 5.44154C5.74038 4.5508 5.88884 4.0666 6.01446 3.74456C6.18004 3.3186 6.37875 3.01369 6.6985 2.69394C7.01826 2.37418 7.32203 2.17662 7.74913 2.01103C8.07117 1.88541 8.55422 1.73695 9.44497 1.69584C10.2878 1.65702 10.6144 1.6456 12.3171 1.64445V1.64674ZM18.0133 3.16329C17.8693 3.16329 17.7267 3.19165 17.5937 3.24674C17.4607 3.30184 17.3399 3.38259 17.2381 3.48439C17.1363 3.58619 17.0555 3.70705 17.0004 3.84006C16.9453 3.97307 16.917 4.11562 16.917 4.25959C16.917 4.40356 16.9453 4.54612 17.0004 4.67913C17.0555 4.81214 17.1363 4.933 17.2381 5.0348C17.3399 5.1366 17.4607 5.21735 17.5937 5.27244C17.7267 5.32754 17.8693 5.3559 18.0133 5.3559C18.304 5.3559 18.5829 5.24039 18.7885 5.0348C18.9941 4.8292 19.1096 4.55035 19.1096 4.25959C19.1096 3.96884 18.9941 3.68999 18.7885 3.48439C18.5829 3.27879 18.304 3.16329 18.0133 3.16329ZM13.137 4.44459C12.5147 4.43489 11.8967 4.54907 11.3189 4.7805C10.7412 5.01193 10.2153 5.35598 9.77175 5.79262C9.32824 6.22926 8.97603 6.74976 8.73562 7.32383C8.4952 7.89789 8.37139 8.51405 8.37139 9.13643C8.37139 9.7588 8.4952 10.375 8.73562 10.949C8.97603 11.5231 9.32824 12.0436 9.77175 12.4802C10.2153 12.9169 10.7412 13.2609 11.3189 13.4924C11.8967 13.7238 12.5147 13.838 13.137 13.8283C14.3687 13.809 15.5434 13.3063 16.4076 12.4285C17.2718 11.5507 17.7562 10.3683 17.7562 9.13643C17.7562 7.9046 17.2718 6.72218 16.4076 5.84438C15.5434 4.96658 14.3687 4.46381 13.137 4.44459ZM13.137 6.09019C13.9448 6.09019 14.7194 6.41107 15.2906 6.98224C15.8618 7.55342 16.1827 8.3281 16.1827 9.13586C16.1827 9.94362 15.8618 10.7183 15.2906 11.2895C14.7194 11.8606 13.9448 12.1815 13.137 12.1815C12.3292 12.1815 11.5546 11.8606 10.9834 11.2895C10.4122 10.7183 10.0913 9.94362 10.0913 9.13586C10.0913 8.3281 10.4122 7.55342 10.9834 6.98224C11.5546 6.41107 12.3292 6.09019 13.137 6.09019Z" fill="white"/>
</g>
<defs>
<filter id="filter0_d_16_306" x="0" y="0" width="26.2717" height="26.2717" filterUnits="userSpaceOnUse" color-interpolation-filters="sRGB">
<feFlood flood-opacity="0" result="BackgroundImageFix"/>
<feColorMatrix in="SourceAlpha" type="matrix" values="0 0 0 0 0 0 0 0 0 0 0 0 0 0 0 0 0 0 127 0" result="hardAlpha"/>
<feOffset dy="4"/>
<feGaussianBlur stdDeviation="2"/>
<feComposite in2="hardAlpha" operator="out"/>
<feColorMatrix type="matrix" values="0 0 0 0 0 0 0 0 0 0 0 0 0 0 0 0 0 0 0.25 0"/>
<feBlend mode="normal" in2="BackgroundImageFix" result="effect1_dropShadow_16_306"/>
<feBlend mode="normal" in="SourceGraphic" in2="effect1_dropShadow_16_306" result="shape"/>
</filter>
</defs>
</svg>
